<?xml version="1.0" standalone="no"?>
<!DOCTYPE svg PUBLIC "-//W3C//DTD SVG 20010904//EN"
 "http://www.w3.org/TR/2001/REC-SVG-20010904/DTD/svg10.dtd">
<svg version="1.0" xmlns="http://www.w3.org/2000/svg"
 width="10442.000000pt" height="1874.000000pt" viewBox="0 0 10442.000000 1874.000000"
 preserveAspectRatio="xMidYMid meet">

<g transform="translate(0.000000,1874.000000) scale(0.100000,-0.100000)"
fill="#000000" stroke="none">
<path d="M43585 18369 c-1268 -90 -2415 -407 -3489 -963 -1084 -560 -2061
-1363 -2832 -2326 -298 -372 -470 -628 -791 -1175 -84 -144 -267 -508 -380
-760 -260 -577 -484 -1305 -597 -1944 -51 -288 -107 -742 -127 -1031 -16 -240
-17 -863 -1 -1085 50 -701 148 -1270 316 -1845 24 -85 56 -194 70 -242 78
-266 277 -779 418 -1078 70 -148 230 -463 279 -550 323 -570 647 -1028 1085
-1535 108 -126 522 -550 634 -651 480 -432 884 -734 1430 -1071 300 -185 724
-400 1100 -559 58 -25 130 -56 160 -69 223 -95 763 -273 1062 -350 746 -190
1435 -277 2203 -276 750 0 1429 85 2150 268 1432 363 2778 1102 3842 2110 457
433 791 817 1164 1338 192 267 434 662 602 982 649 1236 997 2642 997 4028 0
279 -20 717 -45 979 -40 415 -170 1058 -319 1571 -75 260 -99 326 -294 820
-98 250 -341 749 -484 995 -537 925 -1132 1644 -1933 2335 -322 278 -782 611
-1150 832 -1223 735 -2517 1144 -3951 1248 -226 16 -914 19 -1119 4z m1954
-250 c96 -5 178 -12 182 -15 11 -6 24 -57 44 -164 24 -124 81 -324 111 -383
34 -67 55 -89 135 -142 125 -84 243 -223 381 -450 98 -161 177 -264 253 -329
125 -106 200 -125 415 -108 273 23 396 13 547 -44 108 -41 226 -141 285 -244
53 -92 70 -164 70 -300 -1 -141 -11 -201 -92 -515 -44 -169 -53 -219 -57 -321
-6 -125 -1 -154 40 -242 40 -87 172 -125 302 -87 112 32 198 82 381 221 66 50
131 97 144 104 47 25 227 -8 482 -89 217 -69 317 -76 460 -31 54 16 74 29 107
66 70 80 98 166 191 594 41 184 66 254 88 245 125 -47 279 -188 335 -306 55
-113 69 -177 74 -334 6 -160 -8 -260 -57 -420 -39 -129 -153 -357 -231 -462
-54 -75 -64 -83 -93 -83 -56 0 -196 28 -294 60 -177 56 -268 49 -409 -32 -145
-83 -208 -152 -223 -243 -5 -30 -14 -63 -20 -75 -15 -28 -93 -65 -200 -96 -77
-22 -93 -24 -108 -13 -89 68 -112 93 -112 116 0 39 -52 127 -145 246 -46 60
-93 120 -103 134 l-19 26 -60 -16 c-32 -9 -98 -21 -146 -26 -90 -9 -129 -27
-217 -100 l-35 -30 17 -65 c24 -90 78 -202 122 -253 55 -63 119 -89 280 -113
142 -22 257 -53 355 -96 l54 -24 -24 -18 c-13 -10 -103 -69 -199 -131 -96 -63
-180 -119 -187 -125 -8 -8 -6 -37 8 -116 12 -63 22 -177 26 -285 10 -301 -15
-475 -152 -1035 -108 -445 -108 -449 -109 -555 0 -114 17 -148 126 -262 87
-91 142 -191 172 -314 27 -112 22 -184 -24 -304 -45 -119 -62 -230 -53 -355
l6 -75 93 -91 c109 -108 231 -192 346 -240 46 -18 88 -34 94 -34 7 0 13 -34
17 -87 21 -331 291 -916 770 -1673 130 -205 350 -531 484 -716 40 -56 73 -104
73 -107 0 -8 59 -95 69 -101 12 -8 24 6 101 111 40 57 74 102 76 100 1 -1 -6
-40 -17 -87 -42 -193 -60 -384 -43 -468 8 -40 39 -72 70 -72 26 0 26 0 -190
-270 -738 -921 -1926 -1726 -3126 -2117 -283 -92 -512 -150 -809 -203 -219
-40 -204 -42 -196 22 42 320 151 498 415 677 144 97 217 160 254 216 98 149
98 319 -1 669 -67 237 -63 286 37 487 55 112 138 242 201 315 156 182 190 225
217 274 17 30 38 75 46 98 l16 44 -53 55 c-165 175 -353 243 -594 214 -113
-14 -225 -46 -413 -118 -267 -103 -422 -152 -510 -163 -147 -17 -432 -40 -515
-40 l-80 0 -185 185 c-220 220 -237 231 -370 222 -47 -3 -175 -15 -285 -26
-225 -23 -848 -61 -1006 -61 -209 0 -214 6 -222 252 -5 185 -20 289 -59 426
l-21 72 -51 16 c-81 25 -210 29 -286 9 -36 -9 -148 -56 -250 -105 -102 -49
-243 -110 -315 -135 -120 -42 -133 -45 -173 -35 -24 6 -165 35 -315 65 -323
65 -399 87 -532 155 -318 164 -660 473 -800 725 -20 34 -73 175 -118 312 -46
138 -91 262 -100 277 -10 14 -38 36 -62 47 -54 25 -153 122 -208 203 -22 33
-53 98 -69 145 -19 57 -45 107 -80 155 -29 39 -63 87 -76 107 l-24 36 -23 -23
c-28 -28 -43 -29 -155 -8 -134 24 -159 33 -200 70 -120 108 -146 339 -95 837
23 228 69 595 80 645 l5 22 368 0 c202 0 437 -3 524 -7 l156 -6 45 -86 c43
-81 131 -291 125 -296 -2 -1 -22 -14 -45 -28 -71 -45 -171 -146 -227 -231
-138 -210 -171 -435 -96 -656 49 -146 200 -450 275 -555 11 -16 41 -64 65
-105 24 -41 46 -77 50 -80 4 -3 31 -43 60 -90 30 -47 57 -87 60 -90 4 -3 30
-39 58 -80 76 -112 233 -324 246 -332 17 -12 18 -11 68 55 456 598 768 1150
808 1426 19 137 -25 330 -110 472 -57 96 -165 208 -265 275 -45 30 -85 54 -89
54 -4 0 -33 12 -63 26 -69 31 -242 64 -336 64 l-70 0 6 50 c7 61 46 135 96
183 31 30 117 93 305 223 l39 27 -6 61 c-4 34 -13 122 -22 196 -9 75 -13 156
-10 183 8 52 62 144 112 187 113 98 376 343 463 430 l105 106 130 42 c185 59
313 91 377 96 55 4 57 5 130 81 40 43 117 122 171 176 l97 98 65 -24 c193 -73
420 -125 542 -125 96 0 147 15 180 54 22 26 25 37 21 91 -7 114 -73 228 -498
866 -419 627 -528 777 -645 888 -96 91 -138 98 -329 51 -129 -31 -348 -56
-403 -45 -21 4 -33 12 -33 21 0 28 -63 80 -125 103 -115 44 -203 15 -262 -86
-22 -39 -28 -61 -31 -135 -3 -53 0 -106 8 -132 l12 -44 -97 -143 c-140 -207
-127 -198 -170 -106 -53 115 -73 245 -57 382 12 113 52 245 105 350 46 93 144
230 219 308 l68 70 122 -6 c79 -4 162 -15 233 -32 224 -53 292 -66 373 -69
l83 -3 40 -53 c21 -28 39 -56 39 -62 0 -10 40 -47 52 -48 3 0 17 17 29 38 13
20 71 102 130 182 259 354 476 706 596 965 88 192 118 324 103 458 -13 109
-42 203 -91 296 -26 48 -37 80 -33 93 4 15 -4 30 -29 57 -19 20 -46 54 -60 77
-14 23 -55 83 -91 134 -36 52 -63 97 -59 101 5 3 37 12 73 18 118 22 381 82
670 152 685 168 949 213 1355 228 199 8 372 5 634 -10z m-3011 -632 c166 -58
300 -173 371 -318 88 -179 93 -357 13 -530 -155 -338 -574 -476 -922 -302 -94
47 -222 170 -269 258 -97 182 -101 399 -11 574 83 162 233 281 420 333 100 28
299 21 398 -15z m-1430 -6600 c105 -37 176 -82 258 -163 266 -263 236 -687
-66 -927 -58 -46 -191 -106 -270 -123 -152 -32 -330 -6 -475 69 -75 39 -210
172 -252 248 -98 176 -103 402 -13 579 60 117 174 224 305 286 114 55 164 64
310 61 110 -3 142 -8 203 -30z m9492 -126 c385 -105 674 -395 777 -779 24 -87
27 -115 27 -267 0 -152 -3 -180 -27 -267 -84 -314 -283 -557 -572 -698 -163
-79 -252 -101 -440 -107 -124 -4 -167 -1 -245 15 -426 88 -765 427 -846 847
-23 119 -23 312 0 425 77 372 355 686 713 806 137 46 194 54 373 49 126 -2
183 -8 240 -24z"/>
<path d="M44686 16164 c-63 -74 -125 -171 -137 -217 -7 -28 -9 -87 -4 -182 l8
-140 36 -34 c69 -66 157 -124 283 -187 154 -76 308 -171 395 -242 35 -30 81
-61 101 -69 47 -20 285 -64 293 -55 3 4 25 198 48 432 23 234 45 439 47 455
l5 31 -173 1 c-257 1 -355 28 -503 142 -110 85 -183 111 -303 111 -55 -1 -58
-2 -96 -46z"/>
<path d="M46753 15596 c-73 -27 -400 -200 -493 -261 -87 -57 -143 -117 -176
-189 -23 -51 -26 -67 -22 -140 3 -68 10 -93 41 -156 20 -41 61 -106 92 -144
94 -117 124 -243 165 -696 28 -307 62 -426 153 -526 30 -33 67 -61 109 -80 59
-27 71 -29 190 -29 71 0 131 4 137 10 23 23 34 193 22 336 -13 158 -3 283 31
384 22 67 37 94 118 215 73 109 101 165 134 268 42 134 38 176 -34 321 -78
155 -117 274 -135 408 -17 124 -32 193 -52 244 -12 31 -21 39 -58 48 -69 17
-153 12 -222 -13z"/>
<path d="M41896 9574 c-28 -199 -16 -344 41 -507 58 -168 47 -157 161 -157
195 0 298 56 374 204 l20 39 -23 19 c-58 45 -116 79 -167 98 -81 31 -136 75
-275 222 l-124 131 -7 -49z"/>
<path d="M48066 7093 c-78 -98 -83 -117 -78 -280 l2 -72 62 -51 c35 -27 83
-59 108 -71 95 -44 244 -133 321 -191 73 -55 87 -61 172 -79 50 -10 97 -19
104 -19 6 0 14 17 17 38 5 31 51 480 59 576 l2 28 -135 3 c-164 3 -232 22
-333 97 -82 61 -123 77 -199 78 l-56 0 -46 -57z"/>
<path d="M64720 7393 c0 -2667 4 -4358 10 -4474 28 -525 133 -888 367 -1268
194 -314 431 -561 728 -760 279 -187 524 -294 857 -376 334 -82 479 -95 1079
-95 l489 0 0 949 0 950 -497 3 c-476 4 -501 5 -577 26 -262 73 -445 250 -523
507 -17 57 -18 246 -20 4443 l-3 4382 -955 0 -955 0 0 -4287z"/>
<path d="M69500 10820 l0 -860 950 0 950 0 0 860 0 860 -950 0 -950 0 0 -860z"/>
<path d="M22020 10410 l0 -860 950 0 950 0 0 860 0 860 -950 0 -950 0 0 -860z"/>
<path d="M3480 10495 c-392 -48 -809 -178 -1111 -346 -369 -205 -637 -453
-877 -814 -212 -317 -323 -617 -389 -1046 -16 -107 -18 -368 -20 -4197 l-3
-4082 950 0 950 0 2 4003 3 4002 23 80 c76 267 219 411 481 483 l96 27 2250 3
c2348 3 2410 2 2605 -39 172 -37 385 -129 540 -232 105 -70 292 -261 369 -377
152 -230 255 -521 305 -861 13 -85 16 -203 16 -585 0 -264 -5 -528 -10 -589
-22 -226 -74 -407 -171 -595 -199 -385 -559 -654 -1035 -774 -258 -65 -64 -60
-2501 -63 l-2213 -3 0 -950 0 -950 2313 3 c2132 3 2321 4 2427 20 459 69 762
156 1139 326 328 148 700 398 955 642 450 429 777 1024 910 1655 77 366 89
563 83 1384 -4 703 -4 706 -58 1010 -96 553 -349 1127 -705 1600 -171 228
-295 357 -509 531 -422 344 -948 584 -1500 684 -349 63 -156 59 -2800 61
-1920 2 -2431 -1 -2515 -11z"/>
<path d="M55183 8330 c-222 -22 -425 -120 -584 -279 -128 -129 -197 -249 -248
-431 l-26 -95 -3 -3552 -2 -3553 955 0 955 0 0 3005 0 3005 1783 -2 1782 -3
109 -23 c256 -55 493 -157 678 -294 281 -208 489 -545 581 -940 l21 -93 3
-2327 3 -2328 956 0 955 0 -4 2353 c-3 2558 0 2420 -58 2762 -119 710 -475
1376 -982 1842 -120 111 -363 294 -524 394 -219 138 -590 310 -838 389 -210
67 -481 123 -759 157 -117 15 -377 17 -2401 19 -1248 1 -2307 -2 -2352 -6z"/>
<path d="M69500 4380 l0 -3960 950 0 950 0 0 3960 0 3960 -950 0 -950 0 0
-3960z"/>
<path d="M74095 8330 c-351 -35 -666 -270 -794 -590 -66 -167 -61 136 -61
-3775 l0 -3545 950 0 950 0 0 3005 0 3005 1788 -3 c1939 -4 1812 0 2017 -56
85 -24 250 -88 338 -132 420 -211 710 -624 804 -1144 15 -81 17 -317 20 -2382
l4 -2293 949 0 950 0 -1 2303 c-1 1266 -5 2354 -10 2417 -30 397 -103 727
-236 1065 -203 515 -529 965 -932 1289 -512 411 -1081 672 -1702 781 -354 62
-201 58 -2684 61 -1248 1 -2306 -2 -2350 -6z"/>
<path d="M85955 8330 c-521 -28 -906 -152 -1307 -422 -481 -323 -838 -816
-1001 -1383 -41 -141 -79 -308 -104 -455 -16 -97 -18 -229 -21 -1635 -2 -1096
0 -1570 8 -1670 37 -447 147 -793 359 -1130 207 -329 427 -558 725 -757 343
-228 686 -354 1180 -436 91 -14 285 -16 1939 -19 l1837 -4 0 905 0 905 -1777
4 c-1961 3 -1813 -2 -1988 66 -176 68 -314 189 -389 342 -88 180 -81 30 -81
1729 l0 1505 23 79 c41 141 104 249 207 352 106 106 200 160 341 196 l89 23
1855 0 c2104 0 1912 8 2105 -85 213 -103 348 -262 407 -479 17 -61 21 -107 21
-231 1 -184 -18 -271 -88 -415 -100 -203 -246 -324 -471 -387 l-79 -23 -1802
-3 -1803 -2 0 -906 0 -905 1858 4 c2033 4 1912 0 2221 63 515 104 1033 422
1380 848 409 502 633 1217 592 1891 -33 535 -144 885 -408 1287 -214 326 -525
612 -890 817 -267 150 -612 258 -1013 318 -105 15 -279 17 -1950 19 -1009 1
-1898 -2 -1975 -6z"/>
<path d="M14879 7919 c-307 -21 -680 -120 -954 -254 -430 -210 -752 -529 -975
-967 -135 -264 -197 -511 -221 -889 -9 -136 -9 -211 0 -313 66 -766 431 -1368
1052 -1737 289 -171 495 -241 882 -296 98 -14 329 -17 1812 -22 l1700 -7 75
-22 c245 -75 398 -238 460 -492 27 -110 37 -312 21 -415 -28 -169 -84 -287
-186 -391 -109 -111 -248 -171 -445 -194 -53 -6 -1056 -10 -2682 -10 l-2598 0
0 -950 0 -950 2643 0 c1786 0 2679 3 2753 11 392 38 750 145 1104 330 543 285
920 704 1139 1269 110 283 160 525 181 877 23 364 -26 705 -159 1111 -179 548
-518 999 -986 1312 -351 234 -650 343 -1120 407 -106 14 -325 17 -1840 22
l-1720 6 -40 22 c-98 53 -137 131 -143 286 -5 124 7 178 50 238 34 47 121 93
207 109 36 7 856 10 2432 10 l2379 0 0 955 0 955 -2352 -1 c-1294 -1 -2405 -5
-2469 -10z"/>
<path d="M22020 3970 l0 -3960 950 0 950 0 0 3960 0 3960 -950 0 -950 0 0
-3960z"/>
<path d="M28065 7919 c-601 -31 -1150 -241 -1570 -601 -300 -257 -538 -606
-708 -1038 -87 -221 -139 -425 -174 -680 -17 -126 -18 -237 -18 -1665 0 -1403
1 -1541 18 -1664 74 -568 263 -986 637 -1409 261 -296 637 -541 1045 -682 213
-73 499 -135 735 -160 60 -6 1077 -10 2743 -10 l2647 0 0 950 0 950 -2603 0
c-1710 0 -2632 4 -2687 10 -263 32 -456 155 -550 351 -50 106 -68 175 -81 319
-7 75 -9 580 -7 1465 4 1328 4 1351 25 1441 62 270 206 423 468 497 l80 22
2678 3 2677 2 0 955 0 955 -2602 -2 c-1432 0 -2670 -5 -2753 -9z"/>
</g>
</svg>
